<?xml version="1.0" standalone="no"?>
<svg version="1.0" xmlns="http://www.w3.org/2000/svg"
 width="206.000000pt" height="219.000000pt" viewBox="0 0 206.000000 219.000000"
 preserveAspectRatio="xMidYMid meet">

<g transform="translate(0.000000,219.000000) scale(0.100000,-0.100000)"
fill="#000000" stroke="none">
<path d="M795 1890 c-98 -49 -99 -177 -2 -223 43 -21 77 -21 122 -3 43 18 67
56 67 105 -2 105 -97 167 -187 121z"/>
<path d="M1036 1809 c3 -6 6 -25 6 -43 l0 -33 82 -17 c104 -22 243 -88 325
-154 168 -136 251 -295 251 -484 0 -105 -16 -175 -59 -263 -56 -112 -149 -205
-278 -277 -40 -22 -73 -46 -73 -53 0 -64 208 47 318 171 139 156 194 374 143
574 -68 271 -270 470 -561 553 -105 30 -163 40 -154 26z"/>
<path d="M336 1500 c-27 -22 -36 -45 -36 -50 0 -18 17 -10 34 15 9 14 23 36
32 50 24 37 11 30 -30 -15z"/>
<path d="M852 1472 c-77 -28 -80 -34 -47 -82 71 -102 303 -212 479 -227 l69
-6 -7 29 c-27 112 -131 236 -231 273 -84 32 -194 37 -263 13z"/>
<path d="M676 1345 c-55 -72 -70 -122 -71 -230 0 -91 3 -106 29 -160 18 -36
56 -86 94 -125 75 -75 79 -74 107 41 21 85 16 255 -9 336 -18 58 -70 139 -102
160 -19 12 -23 11 -48 -22z"/>
<path d="M218 1283 c-20 -50 -22 -231 -4 -303 84 -329 384 -556 761 -576 111
-6 238 13 243 37 5 26 -22 30 -123 17 -379 -48 -751 192 -841 542 -16 65 -16
232 1 288 11 33 -23 29 -37 -5z"/>
<path d="M894 1194 c16 -63 26 -143 26 -213 l0 -75 58 58 c31 32 86 76 121 99
l63 41 -63 22 c-35 11 -93 36 -129 55 -36 19 -69 36 -74 38 -5 2 -6 -9 -2 -25z"/>
<path d="M1238 1066 c-131 -47 -263 -155 -329 -271 l-28 -50 22 -12 c35 -20
166 -16 241 7 54 17 77 32 125 79 51 49 62 67 81 128 12 39 20 86 18 105 -3
29 -7 33 -33 36 -16 1 -60 -9 -97 -22z"/>
</g>
</svg>
